# xmcd
#
# Track frame offsets:
#	150
#	7200
#	27814
#	28673
#	31240
#	47178
#	70545
#	99661
#	106490
#	107396
#	132874
#	137734
#	156557
#	157118
#	164086
#
# Disc length: 2458 seconds
#
# Revision: 1
# Processed by: cddbd v1.4PL0 Copyright (c) Steve Scherf et al.
# Submitted via: audiograbber 1.81.03
#
DISCID=cb09980f
DTITLE=Lucinda Williams with Elvis Costello - CMT Crossroads Radio Show (bootle
DTITLE=g)
DYEAR=1900
DGENRE=
TTITLE0=Intro
TTITLE1=Change The Locks
TTITLE2=Dialogue
TTITLE3=Dialogue
TTITLE4=Drunken Angel
TTITLE5=Indoor Fireworks
TTITLE6=Q&A
TTITLE7=Crescent City
TTITLE8=ID
TTITLE9=Wild Horses
TTITLE10=Dialogue
TTITLE11=Blue
TTITLE12=Dialogue
TTITLE13=Dialogue
TTITLE14=Poison Rose
EXTD=Pinup Records
EXTT0=
EXTT1=
EXTT2=
EXTT3=
EXTT4=
EXTT5=
EXTT6=
EXTT7=
EXTT8=
EXTT9=
EXTT10=
EXTT11=
EXTT12=
EXTT13=
EXTT14=
PLAYORDER=
